<?xml version="1.0" standalone="no"?>
<!DOCTYPE svg PUBLIC "-//W3C//DTD SVG 20010904//EN"
 "http://www.w3.org/TR/2001/REC-SVG-20010904/DTD/svg10.dtd">
<svg version="1.0" xmlns="http://www.w3.org/2000/svg"
 width="1024.000000pt" height="19.000000pt" viewBox="0 0 1024.000000 19.000000"
 preserveAspectRatio="xMidYMid meet">

<g transform="translate(0.000000,19.000000) scale(0.100000,-0.100000)"
fill="#000000" stroke="none">
<path d="M26 164 c-34 -33 -10 -104 34 -104 19 0 55 29 46 37 -3 3 -12 -2 -21
-11 -20 -20 -29 -20 -49 0 -20 20 -20 48 0 68 19 20 29 20 48 0 14 -13 16 -13
16 -1 0 28 -50 36 -74 11z"/>
<path d="M133 120 c0 -36 2 -50 4 -32 2 17 2 47 0 65 -2 17 -4 3 -4 -33z"/>
<path d="M270 120 c0 -33 4 -60 10 -60 6 0 10 9 10 20 0 26 7 25 31 -3 22 -26
25 -11 4 17 -13 17 -13 22 2 38 20 23 6 24 -19 1 -17 -15 -18 -14 -18 15 0 18
-4 32 -10 32 -6 0 -10 -27 -10 -60z"/>
<path d="M590 165 c-18 -22 -6 -42 30 -50 22 -5 30 -12 28 -23 -4 -23 -32 -26
-52 -7 -13 14 -16 14 -16 2 0 -31 64 -37 80 -8 12 23 -10 51 -39 51 -25 0 -33
11 -20 27 15 17 24 17 43 -3 14 -13 16 -13 16 -1 0 28 -50 36 -70 12z"/>
<path d="M953 120 c0 -36 2 -50 4 -32 2 17 2 47 0 65 -2 17 -4 3 -4 -33z"/>
<path d="M398 159 c-7 -20 6 -92 17 -96 8 -2 11 41 6 100 -1 11 -19 8 -23 -4z"/>
<path d="M163 105 c0 -27 2 -38 4 -22 2 15 2 37 0 50 -2 12 -4 0 -4 -28z"/>
<path d="M202 138 c-16 -16 -15 -53 3 -68 16 -13 55 -5 55 12 0 6 -6 6 -15 -2
-12 -10 -18 -10 -30 0 -8 7 -15 18 -15 25 0 7 7 18 15 25 12 10 18 10 30 0 9
-7 15 -8 15 -2 0 9 -22 22 -39 22 -4 0 -12 -5 -19 -12z"/>
<path d="M452 138 c-16 -16 -15 -53 3 -68 33 -28 71 12 54 58 -9 24 -38 29
-57 10z m46 -27 c5 -34 -16 -51 -33 -27 -10 14 -11 24 -4 38 13 24 33 18 37
-11z"/>
<path d="M693 105 c0 -27 2 -38 4 -22 2 15 2 37 0 50 -2 12 -4 0 -4 -28z"/>
<path d="M730 140 c-6 -4 -10 -22 -8 -41 2 -28 7 -34 26 -33 12 0 22 -3 22 -8
0 -4 -174 -9 -387 -10 l-388 -2 380 -6 c209 -3 450 -3 535 1 l155 5 -140 2
-140 2 3 49 c4 46 2 49 -21 49 -14 0 -30 -4 -37 -8z m35 -36 c0 -19 -5 -29
-15 -29 -16 0 -25 28 -16 51 10 25 31 10 31 -22z"/>
<path d="M811 101 c1 -25 3 -37 6 -26 2 11 6 30 9 43 8 39 32 26 37 -20 l4
-43 -1 45 c-1 42 -3 45 -28 46 -27 1 -28 -1 -27 -45z"/>
<path d="M991 101 l2 -46 6 40 c4 26 11 40 21 40 10 0 17 -14 21 -40 l7 -40
-2 45 c-1 42 -3 45 -28 46 -27 1 -28 -1 -27 -45z"/>
</g>
</svg>
